<svg width="20" height="20" viewBox="0 0 20 20" fill="none" xmlns="http://www.w3.org/2000/svg">
<g id="20/add">
<path id="Line 322 (Stroke)" fill-rule="evenodd" clip-rule="evenodd" d="M3.57129 9.99993C3.57129 9.60544 3.89109 9.28564 4.28557 9.28564H15.7141C16.1086 9.28564 16.4284 9.60544 16.4284 9.99993C16.4284 10.3944 16.1086 10.7142 15.7141 10.7142H4.28557C3.89109 10.7142 3.57129 10.3944 3.57129 9.99993Z" fill="white"/>
<path id="Line 323 (Stroke)" fill-rule="evenodd" clip-rule="evenodd" d="M10.0001 3.57141C10.3946 3.57141 10.7144 3.89121 10.7144 4.2857L10.7144 15.7143C10.7144 16.1088 10.3946 16.4286 10.0001 16.4286C9.60558 16.4286 9.28578 16.1088 9.28578 15.7143L9.28578 4.2857C9.28578 3.89121 9.60558 3.57141 10.0001 3.57141Z" fill="white"/>
</g>
</svg>
