<svg width="20" height="20" viewBox="0 0 20 20" fill="none" xmlns="http://www.w3.org/2000/svg">
<g id="20/add">
<path id="Line 322 (Stroke)" fill-rule="evenodd" clip-rule="evenodd" d="M3.57129 9.99993C3.57129 9.60544 3.89109 9.28564 4.28557 9.28564H15.7141C16.1086 9.28564 16.4284 9.60544 16.4284 9.99993C16.4284 10.3944 16.1086 10.7142 15.7141 10.7142H4.28557C3.89109 10.7142 3.57129 10.3944 3.57129 9.99993Z" fill="#1F2937"/>
<path id="Line 323 (Stroke)" fill-rule="evenodd" clip-rule="evenodd" d="M9.99958 3.57141C10.3941 3.57141 10.7139 3.89121 10.7139 4.2857L10.7139 15.7143C10.7139 16.1088 10.3941 16.4286 9.99958 16.4286C9.60509 16.4286 9.2853 16.1088 9.2853 15.7143L9.2853 4.2857C9.2853 3.89121 9.60509 3.57141 9.99958 3.57141Z" fill="#1F2937"/>
</g>
</svg>
