<svg width="16" height="16" viewBox="0 0 16 16" fill="none" xmlns="http://www.w3.org/2000/svg">
<path d="M7.99992 14.6667C11.6818 14.6667 14.6666 11.6819 14.6666 8.00004C14.6666 4.31814 11.6818 1.33337 7.99992 1.33337C4.31802 1.33337 1.33325 4.31814 1.33325 8.00004C1.33325 11.6819 4.31802 14.6667 7.99992 14.6667Z" fill="#8B8F93"/>
<path fill-rule="evenodd" clip-rule="evenodd" d="M8.20875 5.0216C7.85961 4.96171 7.50054 5.02732 7.19514 5.20681C6.88974 5.38629 6.65771 5.66807 6.54016 6.00224C6.44853 6.26273 6.16307 6.39962 5.90257 6.30799C5.64208 6.21635 5.50519 5.93089 5.59683 5.6704C5.79275 5.11345 6.17946 4.64382 6.68846 4.34467C7.19746 4.04553 7.79591 3.93618 8.37781 4.03599C8.95971 4.1358 9.48751 4.43833 9.86773 4.89C10.2479 5.3416 10.456 5.91314 10.4552 6.50343C10.4549 7.43529 9.76263 8.0656 9.23251 8.41901C8.9522 8.60589 8.67544 8.74391 8.47073 8.83489C8.4655 8.83722 8.46031 8.83951 8.45516 8.84178V9.8363C8.45516 10.1124 8.2313 10.3363 7.95516 10.3363C7.67902 10.3363 7.45516 10.1124 7.45516 9.8363V8.50298C7.45516 8.28805 7.59252 8.0972 7.79624 8.02891C7.79634 8.02888 7.79644 8.02885 7.79654 8.02881C7.79662 8.02878 7.79671 8.02876 7.7968 8.02873C7.79688 8.0287 7.79696 8.02867 7.79705 8.02864M7.7968 8.02873C7.79679 8.02873 7.79679 8.02873 7.79679 8.02873L7.79822 8.02824L7.81012 8.02407C7.82147 8.02003 7.83945 8.0135 7.8631 8.00449C7.91049 7.98644 7.98016 7.95861 8.06459 7.92108C8.23489 7.84539 8.45813 7.73342 8.67781 7.58696C9.14761 7.27376 9.45516 6.90422 9.45516 6.50298L9.45516 6.50224C9.45569 6.148 9.33083 5.80501 9.1027 5.534C8.87457 5.263 8.55789 5.08148 8.20875 5.0216M7.79629 8.0289L7.79624 8.02891C7.79614 8.02895 7.79616 8.02894 7.79629 8.0289ZM10.4552 6.50343C10.4552 6.50353 10.4552 6.50363 10.4552 6.50373L9.95516 6.50298H10.4552C10.4552 6.50313 10.4552 6.50328 10.4552 6.50343Z" fill="white"/>
<circle cx="8.06836" cy="11.5" r="0.5" fill="white"/>
</svg>
