<svg width="15" height="15" viewBox="0 0 15 15" fill="none" xmlns="http://www.w3.org/2000/svg">
<rect x="1" y="1" width="13" height="13" rx="6.5" fill="white"/>
<rect x="1" y="1" width="13" height="13" rx="6.5" stroke="#BAC5D9"/>
<g clip-path="url(#clip0_56_484)">
<path d="M8.2646 6.00117C8.2646 5.45709 7.93118 5.0835 7.35786 5.0835C6.90898 5.0835 6.54016 5.31867 6.21572 5.67828L5.5 5.00072C5.99564 4.41964 6.67781 4 7.51347 4C8.67358 4 9.50026 4.65947 9.50026 5.90907C9.50026 7.37548 7.77133 7.89653 7.92695 9.38103H6.80225C6.57107 7.69809 8.2646 7.04327 8.2646 6.00117ZM6.54888 11.1056C6.54888 10.5846 6.90898 10.2019 7.37556 10.2019C7.84214 10.2019 8.20225 10.5846 8.20225 11.1056C8.20225 11.6174 7.84214 12.0003 7.37556 12.0003C6.90898 12 6.54888 11.6174 6.54888 11.1056Z" fill="#939CC2"/>
</g>
<defs>
<clipPath id="clip0_56_484">
<rect width="4" height="8" fill="white" transform="translate(5.5 4)"/>
</clipPath>
</defs>
</svg>
