<svg width="48" height="48" viewBox="0 0 48 48" fill="none" xmlns="http://www.w3.org/2000/svg">
<g id=" !">
<path id="Vector" d="M20.58 7.72041L3.63998 36.0004C3.29072 36.6053 3.10591 37.291 3.10396 37.9894C3.102 38.6879 3.28296 39.3747 3.62883 39.9815C3.97471 40.5883 4.47343 41.0939 5.0754 41.4481C5.67736 41.8023 6.36158 41.9927 7.05998 42.0004H40.94C41.6384 41.9927 42.3226 41.8023 42.9246 41.4481C43.5265 41.0939 44.0253 40.5883 44.3711 39.9815C44.717 39.3747 44.898 38.6879 44.896 37.9894C44.894 37.291 44.7092 36.6053 44.36 36.0004L27.42 7.72041C27.0634 7.13262 26.5614 6.64665 25.9624 6.30938C25.3633 5.97211 24.6875 5.79492 24 5.79492C23.3125 5.79492 22.6366 5.97211 22.0376 6.30938C21.4385 6.64665 20.9365 7.13262 20.58 7.72041V7.72041Z" stroke="#8B8BE8" stroke-width="2" stroke-linecap="round" stroke-linejoin="round"/>
<path id="Vector_2" d="M24 15.1709L24 30.7369" stroke="#8B8BE8" stroke-width="2" stroke-linecap="round" stroke-linejoin="round"/>
<circle id="Ellipse 80" cx="24.1382" cy="34.8688" r="1.62756" fill="#8B8BE8"/>
</g>
</svg>
