<svg width="29" height="26" viewBox="0 0 29 26" fill="none" xmlns="http://www.w3.org/2000/svg">
<g id="XMLID_3_">
<path id="XMLID_7_" d="M26.2 0.5H3.19995C2.09538 0.5 1.19995 1.39543 1.19995 2.5V23.5C1.19995 24.6046 2.09538 25.5 3.19995 25.5H26.2C27.3045 25.5 28.2 24.6046 28.2 23.5V2.5C28.2 1.39543 27.3045 0.5 26.2 0.5Z" stroke="#8B8F93" stroke-miterlimit="10"/>
<path id="XMLID_6_" d="M1.69995 16.3725L7.40726 11L20.2281 23.8235" stroke="#8B8F93" stroke-width="1.33333" stroke-miterlimit="10" stroke-linecap="round"/>
<path id="XMLID_5_" d="M13.1145 15.6667L16.3132 12.0979L27.6998 23.6667" stroke="#8B8F93" stroke-width="1.33333" stroke-miterlimit="10" stroke-linecap="round"/>
<path id="XMLID_4_" d="M21.7 9C22.8045 9 23.7 8.10457 23.7 7C23.7 5.89543 22.8045 5 21.7 5C20.5954 5 19.7 5.89543 19.7 7C19.7 8.10457 20.5954 9 21.7 9Z" stroke="#8B8F93" stroke-width="1.33333" stroke-miterlimit="10"/>
</g>
</svg>
