<svg width="5" height="9" viewBox="0 0 5 9" fill="none" xmlns="http://www.w3.org/2000/svg">
<g id="Frame" clip-path="url(#clip0_103_11610)">
<g id="Group">
<path id="Vector" d="M3.2646 2.50117C3.2646 1.95709 2.93118 1.5835 2.35786 1.5835C1.90898 1.5835 1.54016 1.81867 1.21572 2.17828L0.5 1.50072C0.995641 0.919639 1.67781 0.5 2.51347 0.5C3.67358 0.5 4.50026 1.15947 4.50026 2.40907C4.50026 3.87548 2.77133 4.39653 2.92695 5.88103H1.80225C1.57107 4.19809 3.2646 3.54327 3.2646 2.50117ZM1.54888 7.60563C1.54888 7.08458 1.90898 6.70194 2.37556 6.70194C2.84214 6.70194 3.20225 7.08458 3.20225 7.60563C3.20225 8.11736 2.84214 8.50027 2.37556 8.50027C1.90898 8.5 1.54888 8.11736 1.54888 7.60563Z" fill="#728BBB"/>
</g>
</g>
<defs>
<clipPath id="clip0_103_11610">
<rect width="4" height="8" fill="white" transform="translate(0.5 0.5)"/>
</clipPath>
</defs>
</svg>
