<svg width="28" height="26" viewBox="0 0 28 26" fill="none" xmlns="http://www.w3.org/2000/svg">
<g id="XMLID_3_">
<path id="XMLID_7_" d="M25.5 0.5H2.5C1.39543 0.5 0.5 1.39543 0.5 2.5V23.5C0.5 24.6046 1.39543 25.5 2.5 25.5H25.5C26.6046 25.5 27.5 24.6046 27.5 23.5V2.5C27.5 1.39543 26.6046 0.5 25.5 0.5Z" stroke="#8B8F93" stroke-miterlimit="10"/>
<path id="XMLID_6_" d="M1 16.3725L6.70731 11L19.5282 23.8235" stroke="#8B8F93" stroke-width="1.33333" stroke-miterlimit="10" stroke-linecap="round"/>
<path id="XMLID_5_" d="M12.4141 15.6667L15.6128 12.0978L26.9994 23.6667" stroke="#8B8F93" stroke-width="1.33333" stroke-miterlimit="10" stroke-linecap="round"/>
<path id="XMLID_4_" d="M21 9C22.1046 9 23 8.10457 23 7C23 5.89543 22.1046 5 21 5C19.8954 5 19 5.89543 19 7C19 8.10457 19.8954 9 21 9Z" stroke="#8B8F93" stroke-width="1.33333" stroke-miterlimit="10"/>
</g>
</svg>
