<svg width="21" height="21" viewBox="0 0 21 21" fill="none" xmlns="http://www.w3.org/2000/svg">
<path d="M13.3804 4.56995V6.23661M13.3804 9.56995V11.2366M13.3804 14.5699V16.2366M5.04704 4.56995C4.12656 4.56995 3.38037 5.31614 3.38037 6.23661V8.73661C4.30085 8.73661 5.04704 9.48281 5.04704 10.4033C5.04704 11.3238 4.30085 12.0699 3.38037 12.0699V14.5699C3.38037 15.4904 4.12656 16.2366 5.04704 16.2366H16.7137C17.6342 16.2366 18.3804 15.4904 18.3804 14.5699V12.0699C17.4599 12.0699 16.7137 11.3238 16.7137 10.4033C16.7137 9.48281 17.4599 8.73661 18.3804 8.73661V6.23661C18.3804 5.31614 17.6342 4.56995 16.7137 4.56995H5.04704Z" stroke="#FFB800" stroke-linecap="round" stroke-linejoin="round"/>
</svg>
