<svg width="21" height="21" viewBox="0 0 21 21" fill="none" xmlns="http://www.w3.org/2000/svg">
<path d="M10.7891 7.06999V17.9033M10.7891 7.06999C10.7891 7.06999 10.7891 5.82601 10.7891 5.40332C10.7891 4.48285 11.5353 3.73665 12.4557 3.73665C13.3762 3.73665 14.1224 4.48285 14.1224 5.40332C14.1224 6.32379 13.3762 7.06999 12.4557 7.06999C11.9579 7.06999 10.7891 7.06999 10.7891 7.06999ZM10.7891 7.06999C10.7891 7.06999 10.7891 5.45575 10.7891 4.98665C10.7891 3.83606 9.85632 2.90332 8.70573 2.90332C7.55514 2.90332 6.6224 3.83606 6.6224 4.98665C6.6224 6.13725 7.55514 7.06999 8.70573 7.06999C9.38723 7.06999 10.7891 7.06999 10.7891 7.06999ZM4.95573 10.4033H16.6224M4.95573 10.4033C4.03525 10.4033 3.28906 9.65713 3.28906 8.73665C3.28906 7.81618 4.03525 7.06999 4.95573 7.06999H16.6224C17.5429 7.06999 18.2891 7.81618 18.2891 8.73665C18.2891 9.65713 17.5429 10.4033 16.6224 10.4033M4.95573 10.4033L4.95573 16.2367C4.95573 17.1571 5.70192 17.9033 6.6224 17.9033H14.9557C15.8762 17.9033 16.6224 17.1571 16.6224 16.2367V10.4033" stroke="white" stroke-linecap="round" stroke-linejoin="round"/>
</svg>
