<svg width="21" height="21" viewBox="0 0 21 21" fill="none" xmlns="http://www.w3.org/2000/svg">
<g clip-path="url(#clip0_46_4334)">
<path d="M15.3863 3.70764H13.5602H12.9515H11.1254H8.08191H5.64713C4.6367 3.70764 3.82104 4.52329 3.82104 5.53373V17.7076L5.03844 16.4902L6.25583 17.7076L7.47322 16.4902L8.66626 17.7076L9.908 16.4902L11.1254 17.7076L12.3428 16.4902L13.5602 17.7076V6.75112V5.53373" stroke="white" stroke-miterlimit="10" stroke-linecap="round" stroke-linejoin="round"/>
<path d="M17.2122 5.53373V6.75112H13.5601V5.53373C13.5601 4.99199 13.7914 4.50503 14.1688 4.17634C14.4914 3.88416 14.9174 3.70764 15.3861 3.70764C16.3966 3.70764 17.2122 4.52329 17.2122 5.53373Z" stroke="white" stroke-miterlimit="10" stroke-linecap="round" stroke-linejoin="round"/>
<path d="M5.96313 7.84082H11.5166" stroke="white" stroke-miterlimit="10" stroke-linecap="round" stroke-linejoin="round"/>
<path d="M5.96313 10.9658H11.5166" stroke="white" stroke-miterlimit="10" stroke-linecap="round" stroke-linejoin="round"/>
</g>
<defs>
<clipPath id="clip0_46_4334">
<rect width="16" height="16" fill="white" transform="translate(2.5166 2.40332)"/>
</clipPath>
</defs>
</svg>
