<svg width="24" height="21" viewBox="0 0 24 21" fill="none" xmlns="http://www.w3.org/2000/svg">
<path d="M3.60156 4.56999C3.60156 3.64951 4.44598 2.90332 5.48763 2.90332H8.58006C8.98596 2.90332 9.34633 3.13285 9.47469 3.47313L10.8872 7.21766C11.0356 7.61109 10.834 8.04108 10.4143 8.22654L8.28561 9.16707C9.32506 11.2043 11.1824 12.8456 13.4878 13.7641L14.5522 11.8831C14.7621 11.5122 15.2486 11.3341 15.6939 11.4652L19.9313 12.7134C20.3164 12.8268 20.5761 13.1453 20.5761 13.504V16.2367C20.5761 17.1571 19.7317 17.9033 18.6901 17.9033H17.747C9.93471 17.9033 3.60156 12.3069 3.60156 5.40332V4.56999Z" stroke="#FFB800" stroke-linecap="round" stroke-linejoin="round"/>
</svg>
