<svg width="18" height="16" viewBox="0 0 18 16" fill="none" xmlns="http://www.w3.org/2000/svg">
<g id="Frame" clip-path="url(#clip0_93_3260)">
<g id="XMLID_1_">
<g id="XMLID_5_">
<path id="XMLID_15_" d="M8.71533 11.0156V13.034C8.71533 13.9261 10.7014 14.6487 13.1558 14.6487C15.6102 14.6487 17.5962 13.9261 17.5962 13.034V11.0156" stroke="#6A6A6A" stroke-miterlimit="10"/>
<path id="XMLID_14_" d="M8.71533 11.0156V13.034C8.71533 13.9261 10.7014 14.6487 13.1558 14.6487C15.6102 14.6487 17.5962 13.9261 17.5962 13.034V11.0156" stroke="#6A6A6A" stroke-miterlimit="10"/>
<path id="XMLID_13_" d="M8.71533 8.99707V11.0155C8.71533 11.9076 10.7014 12.6302 13.1558 12.6302C15.6102 12.6302 17.5962 11.9076 17.5962 11.0155V8.99707" stroke="#6A6A6A" stroke-miterlimit="10"/>
<path id="XMLID_12_" d="M8.71533 8.99707V11.0155C8.71533 11.9076 10.7014 12.6302 13.1558 12.6302C15.6102 12.6302 17.5962 11.9076 17.5962 11.0155V8.99707" stroke="#6A6A6A" stroke-miterlimit="10"/>
<path id="XMLID_11_" d="M8.71533 6.97852V8.99691C8.71533 9.88903 10.7014 10.6116 13.1558 10.6116C15.6102 10.6116 17.5962 9.88903 17.5962 8.99691V6.97852" stroke="#6A6A6A" stroke-miterlimit="10"/>
<path id="XMLID_10_" d="M8.71533 6.97852V8.99691C8.71533 9.88903 10.7014 10.6116 13.1558 10.6116C15.6102 10.6116 17.5962 9.88903 17.5962 8.99691V6.97852" stroke="#6A6A6A" stroke-miterlimit="10"/>
<path id="XMLID_9_" d="M8.71533 4.96045V6.97884C8.71533 7.87097 10.7014 8.59355 13.1558 8.59355C15.6102 8.59355 17.5962 7.87097 17.5962 6.97884V4.96045" stroke="#6A6A6A" stroke-miterlimit="10"/>
<g id="XMLID_6_">
<path id="XMLID_8_" d="M13.1558 4.55657C15.6082 4.55657 17.5962 3.83364 17.5962 2.94186C17.5962 2.05008 15.6082 1.32715 13.1558 1.32715C10.7034 1.32715 8.71533 2.05008 8.71533 2.94186C8.71533 3.83364 10.7034 4.55657 13.1558 4.55657Z" stroke="#6A6A6A" stroke-miterlimit="10"/>
<path id="XMLID_7_" d="M8.71533 2.94189V4.96028C8.71533 5.85241 10.7014 6.575 13.1558 6.575C15.6102 6.575 17.5962 5.85241 17.5962 4.96028V2.94189" stroke="#6A6A6A" stroke-miterlimit="10"/>
</g>
</g>
<g id="XMLID_2_">
<path id="XMLID_4_" d="M6.88669 6.76046C7.51643 7.3902 6.6243 9.30767 4.88849 11.0435C3.15267 12.7793 1.23924 13.6714 0.605465 13.0417C-0.0242727 12.412 0.867855 10.4945 2.60367 8.75867C4.33949 7.02689 6.2287 6.1065 6.88669 6.76046Z" stroke="#6A6A6A" stroke-miterlimit="10"/>
<path id="XMLID_3_" d="M0.605469 13.0415L2.03449 14.4705C2.66423 15.1002 4.5817 14.2081 6.31751 12.4723C8.05333 10.7365 8.94546 8.82305 8.31572 8.18927L6.8867 6.76025" stroke="#6A6A6A" stroke-miterlimit="10"/>
</g>
</g>
</g>
<defs>
<clipPath id="clip0_93_3260">
<rect width="18" height="14.153" fill="white" transform="translate(0 0.92334)"/>
</clipPath>
</defs>
</svg>
