<svg width="24" height="21" viewBox="0 0 24 21" fill="none" xmlns="http://www.w3.org/2000/svg">
<path d="M16.855 17.07H21.5701V15.4034C21.5701 14.0226 20.3035 12.9034 18.741 12.9034C17.8398 12.9034 17.0371 13.2757 16.519 13.8558M16.855 17.07H7.42463M16.855 17.07V15.4034C16.855 14.8565 16.7357 14.3342 16.519 13.8558M7.42463 17.07H2.70947V15.4034C2.70947 14.0226 3.9761 12.9034 5.53857 12.9034C6.43974 12.9034 7.24249 13.2757 7.76058 13.8558M7.42463 17.07V15.4034C7.42463 14.8565 7.54385 14.3342 7.76058 13.8558M7.76058 13.8558C8.45584 12.3209 10.1545 11.2367 12.1398 11.2367C14.125 11.2367 15.8237 12.3209 16.519 13.8558M14.9689 6.23669C14.9689 7.61741 13.7023 8.73669 12.1398 8.73669C10.5773 8.73669 9.3107 7.61741 9.3107 6.23669C9.3107 4.85598 10.5773 3.73669 12.1398 3.73669C13.7023 3.73669 14.9689 4.85598 14.9689 6.23669ZM20.6271 8.73669C20.6271 9.65717 19.7827 10.4034 18.741 10.4034C17.6994 10.4034 16.855 9.65717 16.855 8.73669C16.855 7.81622 17.6994 7.07003 18.741 7.07003C19.7827 7.07003 20.6271 7.81622 20.6271 8.73669ZM7.42463 8.73669C7.42463 9.65717 6.58021 10.4034 5.53857 10.4034C4.49692 10.4034 3.6525 9.65717 3.6525 8.73669C3.6525 7.81622 4.49692 7.07003 5.53857 7.07003C6.58021 7.07003 7.42463 7.81622 7.42463 8.73669Z" stroke="#FFB800" stroke-linecap="round" stroke-linejoin="round"/>
</svg>
