<svg width="24" height="24" viewBox="0 0 24 24" fill="none" xmlns="http://www.w3.org/2000/svg">
<rect width="24" height="24" rx="2" fill="white" fill-opacity="0.5"/>
<rect x="0.5" y="0.5" width="23" height="23" rx="1.5" stroke="#2A5082" stroke-opacity="0.3"/>
<path fill-rule="evenodd" clip-rule="evenodd" d="M8.86481 6.11243C8.60456 6.11243 8.35497 6.21581 8.17095 6.39983C7.98693 6.58385 7.88354 6.83344 7.88354 7.09369V8.72913C7.88354 9.09042 7.59066 9.3833 7.22937 9.3833C6.86808 9.3833 6.5752 9.09042 6.5752 8.72913L6.5752 7.09369C6.5752 6.48645 6.81642 5.90407 7.24581 5.47469C7.67519 5.0453 8.25756 4.80408 8.86481 4.80408L17.3691 4.80408C17.9763 4.80408 18.5587 5.0453 18.9881 5.47469C19.4175 5.90407 19.6587 6.48645 19.6587 7.09369V16.9063C19.6587 17.5136 19.4175 18.0959 18.9881 18.5253C18.5587 18.9547 17.9763 19.1959 17.3691 19.1959H8.86481C8.25756 19.1959 7.67519 18.9547 7.24581 18.5253C6.81642 18.0959 6.5752 17.5136 6.5752 16.9063L6.5752 15.2709C6.5752 14.9096 6.86808 14.6167 7.22937 14.6167C7.59066 14.6167 7.88354 14.9096 7.88354 15.2709V16.9063C7.88354 17.1666 7.98693 17.4161 8.17095 17.6002C8.35497 17.7842 8.60456 17.8876 8.86481 17.8876H17.3691C17.6293 17.8876 17.8789 17.7842 18.0629 17.6002C18.247 17.4161 18.3503 17.1666 18.3503 16.9063V7.09369C18.3503 6.83344 18.247 6.58385 18.0629 6.39983C17.8789 6.21581 17.6293 6.11243 17.3691 6.11243L8.86481 6.11243Z" fill="#0E0F0E"/>
<path fill-rule="evenodd" clip-rule="evenodd" d="M10.6916 8.26655C10.9471 8.01108 11.3613 8.01108 11.6167 8.26655L14.8876 11.5374C15.1431 11.7929 15.1431 12.2071 14.8876 12.4626L11.6167 15.7334C11.3613 15.9889 10.9471 15.9889 10.6916 15.7334C10.4361 15.478 10.4361 15.0638 10.6916 14.8083L13.4999 12L10.6916 9.1917C10.4361 8.93623 10.4361 8.52203 10.6916 8.26655Z" fill="#0E0F0E"/>
<path fill-rule="evenodd" clip-rule="evenodd" d="M4.3418 12C4.3418 11.6387 4.63468 11.3458 4.99597 11.3458L13.7711 11.3458C14.1324 11.3458 14.4253 11.6387 14.4253 12C14.4253 12.3613 14.1324 12.6542 13.7711 12.6542L4.99597 12.6542C4.63468 12.6542 4.3418 12.3613 4.3418 12Z" fill="#0E0F0E"/>
</svg>
