<svg width="200" height="30" viewBox="0 0 200 30" fill="none" xmlns="http://www.w3.org/2000/svg">
<mask id="mask0_46_5663" style="mask-type:luminance" maskUnits="userSpaceOnUse" x="39" y="4" width="161" height="24">
<path d="M199.833 4.68857H39.3115V27.1426H199.833V4.68857Z" fill="white"/>
</mask>
<g mask="url(#mask0_46_5663)">
<path d="M95.4261 5.14981H89.4453V26.5917H95.4261V5.14981Z" fill="black"/>
<path d="M163.4 5.19464H157.419V5.88652H163.4V5.19464Z" fill="black"/>
<path d="M163.4 6.11719H157.419V7.73157H163.4V6.11719Z" fill="black"/>
<path d="M163.4 10.7297H157.419V11.6522H163.4V10.7297Z" fill="black"/>
<path d="M163.4 8.42343H157.419V8.88468H163.4V8.42343Z" fill="black"/>
<path d="M163.4 14.6504H157.419V15.1116H163.4V14.6504Z" fill="black"/>
<path d="M163.4 10.0378H157.419V10.4991H163.4V10.0378Z" fill="black"/>
<path d="M163.4 9.11533H157.419V9.34595H163.4V9.11533Z" fill="black"/>
<path d="M163.4 14.1891H157.419V14.4197H163.4V14.1891Z" fill="black"/>
<path d="M163.4 12.1134H157.419V13.7278H163.4V12.1134Z" fill="black"/>
<path d="M163.4 15.5665H157.419V16.489H163.4V15.5665Z" fill="black"/>
<path d="M163.4 25.2527H157.419V26.6365H163.4V25.2527Z" fill="black"/>
<path d="M163.4 23.6384H157.419V24.0997H163.4V23.6384Z" fill="black"/>
<path d="M163.4 22.4853H157.419V23.1771H163.4V22.4853Z" fill="black"/>
<path d="M163.4 17.4114H157.419V18.3339H163.4V17.4114Z" fill="black"/>
<path d="M163.4 18.7952H157.419V19.2565H163.4V18.7952Z" fill="black"/>
<path d="M163.4 19.7177H157.419V21.3321H163.4V19.7177Z" fill="black"/>
<path d="M39.3115 19.7049H45.3689C45.3689 21.236 46.5446 21.9727 47.8801 21.9727C49.1133 21.9727 50.2826 21.3193 50.2826 20.1469C50.2826 18.808 48.6213 18.4172 46.5958 17.9239C43.5159 17.1488 39.5799 16.207 39.5799 11.3383C39.5799 7.13572 42.6725 4.72696 47.6948 4.72696C52.7171 4.72696 55.7394 7.35994 55.7394 11.7034H49.8481C49.8481 10.3517 48.8449 9.71746 47.6245 9.71746C46.5766 9.71746 45.5734 10.1723 45.5734 11.1717C45.5734 12.3825 47.1772 12.7861 49.19 13.2922C52.3273 14.1058 56.4295 15.1564 56.4295 20.038C56.4295 24.9196 52.8513 27.1298 47.8993 27.1298C42.6789 27.1298 39.3115 24.3622 39.3115 19.7049Z" fill="black"/>
<path d="M80.5827 26.6045L78.9214 14.298L73.2665 26.6429H71.5285L65.88 14.3044L64.2379 26.6109H58.2891L61.5159 5.2395H67.3816L72.3975 16.8669L77.4517 5.2395H83.3175L86.5123 26.6109H80.5827V26.6045Z" fill="black"/>
<path d="M113.023 21.2104V26.6045H99.4834V5.22668H105.432V21.2104H113.023Z" fill="black"/>
<path d="M129.56 21.4923V26.5981H115.662V5.22668H129.304V10.3197H121.509V13.4652H128.512V18.2955H121.509V21.4923H129.56Z" fill="black"/>
<path d="M154.108 15.182C154.108 22.1777 149.553 27.1426 142.882 27.1426C136.211 27.1426 131.527 22.434 131.527 15.9316C131.527 9.42919 136.262 4.68854 142.831 4.68854C148.422 4.68854 152.99 8.19278 153.891 13.1577H147.738C146.965 11.3575 145.061 10.1979 142.888 10.1979C139.693 10.1979 137.54 12.5106 137.54 15.9316C137.54 19.3461 139.661 21.6268 142.888 21.6268C145.131 21.6268 147.054 20.5377 147.725 18.8913H142.428V15.182H154.108Z" fill="black"/>
<path d="M173.079 10.5567V13.9585H179.929V19.1155H173.079V26.6045H167.156V5.22668H180.728V10.5567H173.079Z" fill="black"/>
<path d="M199.827 10.5311H194.038V26.6045H188.14V10.5311H182.345V5.22668H199.827V10.5311Z" fill="black"/>
</g>
<path d="M29.6121 14.9963C29.6121 23.1451 23.0243 29.75 14.8966 29.75C6.76896 29.75 0.174805 23.1515 0.174805 14.9963C0.174805 6.8411 6.76257 0.242615 14.8902 0.242615C23.0179 0.242615 29.6121 6.8475 29.6121 14.9963Z" fill="#FFB800"/>
<mask id="mask1_46_5663" style="mask-type:luminance" maskUnits="userSpaceOnUse" x="5" y="13" width="19" height="11">
<path d="M23.8866 13.3243H5.56738V23.4462H23.8866V13.3243Z" fill="white"/>
</mask>
<g mask="url(#mask1_46_5663)">
<path d="M21.2672 14.1507C21.2672 13.9649 21.2544 13.7792 21.2353 13.5934L23.8487 13.3243C23.8742 13.587 23.8934 13.8496 23.8934 14.1123L21.2672 14.1507ZM21.1969 15.2014L23.7975 15.5793C23.8359 15.3231 23.8614 15.0604 23.8806 14.7978L21.2608 14.644C21.2417 14.8298 21.2289 15.0156 21.1969 15.2014ZM19.5292 18.712C19.4781 18.7697 19.427 18.8273 19.3695 18.8786L21.2289 20.73C21.3056 20.6531 21.3822 20.5762 21.4525 20.4994L21.6698 20.2623L19.6826 18.5454L19.5292 18.712ZM18.8136 19.3783C18.7689 19.4167 18.7177 19.4551 18.6666 19.4936C17.2737 20.5506 15.5612 20.999 13.8296 20.7556C10.5262 20.2944 8.10447 17.4307 8.19393 14.0867L5.57416 14.0098C5.43997 18.6928 8.8329 22.7095 13.4654 23.3566C13.8935 23.4142 14.328 23.4463 14.7497 23.4463C16.6028 23.4463 18.3919 22.8761 19.9318 21.8126L19.9382 21.8191C20.0468 21.7358 20.1554 21.6589 20.264 21.5756C20.2896 21.5564 20.3152 21.5436 20.3407 21.5244C20.3791 21.4923 20.4174 21.4667 20.4557 21.4347L18.8136 19.3783ZM21.0372 15.9893L20.9797 16.1943L20.9094 16.3929L23.395 17.245L23.4908 16.9631L23.5739 16.6748C23.6314 16.4826 23.6697 16.2904 23.7145 16.0982L21.1458 15.5729C21.1011 15.7139 21.0755 15.8548 21.0372 15.9893ZM19.887 18.2892L21.9573 19.91C22.3599 19.3911 22.7049 18.8337 22.986 18.2379L20.6219 17.0976C20.4238 17.5204 20.1746 17.9176 19.887 18.2892Z" fill="black"/>
</g>
<path d="M13.3955 12.2352C13.338 12.3057 13.2677 12.3377 13.1783 12.3441C13.0888 12.3505 13.0058 12.3249 12.9355 12.2672L12.124 11.5818L11.4339 12.3953C11.3764 12.4658 11.3061 12.4979 11.2166 12.5043C11.1272 12.5107 11.0441 12.485 10.9738 12.4274C10.9036 12.3697 10.8716 12.2993 10.8652 12.2096C10.8588 12.1263 10.8844 12.0494 10.9419 11.9661L11.8428 10.9091C11.9131 10.8386 11.9898 10.8002 12.0665 10.7938C12.1559 10.7874 12.2326 10.813 12.3029 10.8707L13.3572 11.7739C13.4275 11.8316 13.4594 11.9085 13.4722 11.9982C13.4722 12.0943 13.4466 12.1647 13.3955 12.2352Z" fill="black"/>
<path d="M18.4937 11.8508C18.5959 11.3319 18.3467 10.845 17.9314 10.7618C17.5161 10.6785 17.1007 11.0308 16.9985 11.5497C16.8963 12.0686 17.1455 12.5555 17.5608 12.6388C17.9761 12.7285 18.3914 12.3697 18.4937 11.8508Z" fill="black"/>
</svg>
