<svg width="30" height="30" viewBox="0 0 30 30" fill="none" xmlns="http://www.w3.org/2000/svg">
<path d="M24.4791 7.93701C25.6563 7.93701 26.5552 8.83165 26.5552 9.93604V22.919H3.86816V9.93604C3.86816 8.79313 4.57874 7.93701 5.75161 7.93701H24.4791Z" fill="white" stroke="#FFB800" stroke-miterlimit="10"/>
<path d="M28.2675 22.9191H1.72803V23.3428C1.72803 24.841 2.94371 26.3435 4.44191 26.3435H25.5579C27.0561 26.3435 28.2718 24.841 28.2718 23.3428V22.9191H28.2675Z" fill="white" stroke="#FFB800" stroke-miterlimit="10"/>
<path d="M13.2856 24.6312H17.9943" stroke="#FFB800" stroke-miterlimit="10"/>
<path d="M24.843 14.3579V21.6349" stroke="#FFB800" stroke-miterlimit="10"/>
<path d="M5.58057 21.6349V9.64929H13.2856" stroke="#FFB800" stroke-miterlimit="10"/>
<path d="M28.2676 4.94066V11.811C28.2676 12.5087 27.7026 13.0737 27.0049 13.0737H20.0789L17.472 16.3826C17.2238 16.7037 16.7101 16.5239 16.7101 16.1172V13.0737H15.8626C15.152 13.0737 14.5698 12.4916 14.5698 11.781V4.94066C14.5698 4.23009 15.1434 3.65649 15.854 3.65649H26.9835C27.694 3.65649 28.2676 4.23009 28.2676 4.94066Z" fill="white" stroke="#FFB800" stroke-miterlimit="10"/>
<path d="M19.2783 8.36511H20.1344" stroke="#FFB800" stroke-miterlimit="10"/>
<path d="M20.9905 8.36511H21.8466" stroke="#FFB800" stroke-miterlimit="10"/>
<path d="M22.7029 8.36511H23.559" stroke="#FFB800" stroke-miterlimit="10"/>
<path d="M7.79272 18.9724C7.79272 18.9027 7.84092 18.7571 8.08917 18.546C8.3258 18.3448 8.67136 18.1484 9.07246 17.9748C9.88659 17.6224 10.779 17.4263 11.1452 17.4263C11.5115 17.4263 12.4039 17.6224 13.218 17.9748C13.6191 18.1484 13.9647 18.3448 14.2013 18.546C14.4495 18.7571 14.4977 18.9027 14.4977 18.9724V21.1349H7.79272V18.9724Z" fill="white" stroke="#FFB800"/>
<path d="M13.2856 13.7158C13.2856 12.6499 12.4252 11.7896 11.3594 11.7896C10.2935 11.7896 9.43311 12.6499 9.43311 13.7158V15C9.43311 16.0658 10.2935 16.9262 11.3594 16.9262C12.4252 16.9262 13.2856 16.0658 13.2856 15V13.7158Z" fill="white" stroke="#FFB800" stroke-miterlimit="10"/>
</svg>
