<svg width="30" height="30" viewBox="0 0 30 30" fill="none" xmlns="http://www.w3.org/2000/svg">
<path d="M11.5911 15.6817C14.227 15.6817 16.3638 14.7659 16.3638 13.6363C16.3638 12.5066 14.227 11.5908 11.5911 11.5908C8.95518 11.5908 6.81836 12.5066 6.81836 13.6363C6.81836 14.7659 8.95518 15.6817 11.5911 15.6817Z" stroke="#FFB800" stroke-width="1.5" stroke-miterlimit="10" stroke-linecap="round" stroke-linejoin="round"/>
<path d="M17.7273 22.5C20.3632 22.5 22.5 21.5842 22.5 20.4545C22.5 19.3248 20.3632 18.4091 17.7273 18.4091C15.0914 18.4091 12.9546 19.3248 12.9546 20.4545C12.9546 21.5842 15.0914 22.5 17.7273 22.5Z" stroke="#FFB800" stroke-width="1.5" stroke-miterlimit="10" stroke-linecap="round" stroke-linejoin="round"/>
<path d="M12.9546 20.4545V23.8636C12.9546 24.9954 15.0887 25.909 17.7273 25.909C20.366 25.909 22.5 24.9954 22.5 23.8636V20.4545" stroke="#FFB800" stroke-width="1.5" stroke-miterlimit="10" stroke-linecap="round" stroke-linejoin="round"/>
<path d="M22.5 23.8635V27.2726C22.5 28.4044 20.366 29.3181 17.7273 29.3181C15.0887 29.3181 12.9546 28.4044 12.9546 27.2726V23.8635" stroke="#FFB800" stroke-width="1.5" stroke-miterlimit="10" stroke-linecap="round" stroke-linejoin="round"/>
<path d="M6.81836 17.0454V20.4545C6.81836 21.484 8.5979 22.3363 10.9093 22.4795" stroke="#FFB800" stroke-width="1.5" stroke-miterlimit="10" stroke-linecap="round" stroke-linejoin="round"/>
<path d="M16.3638 16.3636V13.6364" stroke="#FFB800" stroke-width="1.5" stroke-miterlimit="10" stroke-linecap="round" stroke-linejoin="round"/>
<path d="M6.81836 13.6364V17.0454C6.81836 18.1159 8.72745 18.9886 11.1684 19.0841" stroke="#FFB800" stroke-width="1.5" stroke-miterlimit="10" stroke-linecap="round" stroke-linejoin="round"/>
<path d="M10.9093 25.8886C8.5979 25.7454 6.81836 24.8931 6.81836 23.8636V20.4545" stroke="#FFB800" stroke-width="1.5" stroke-miterlimit="10" stroke-linecap="round" stroke-linejoin="round"/>
<path d="M17.7273 11.5909H19.7728V15.6818L29.3182 8.18176L19.7728 0.681763V4.77267H8.8637C4.09779 4.76585 0.688703 8.58404 0.681885 13.9431C0.681885 16.6568 1.55461 19.2409 3.12279 21.1363" stroke="#FFB800" stroke-width="1.5" stroke-miterlimit="10" stroke-linecap="round" stroke-linejoin="round"/>
<path d="M1.70458 18.8454C0.981853 16.3295 2.37958 14.1681 4.61594 12.9545" stroke="#FFB800" stroke-width="1.5" stroke-miterlimit="10" stroke-linecap="round" stroke-linejoin="round"/>
</svg>
