<svg width="30" height="30" viewBox="0 0 30 30" fill="none" xmlns="http://www.w3.org/2000/svg">
<path d="M14.6875 15.625V10.625H18.4375L10.9375 0.625L3.4375 10.625H7.1875V21.875" stroke="#FFB800" stroke-miterlimit="10" stroke-linecap="round" stroke-linejoin="round"/>
<path d="M7.1875 24.375V25.625" stroke="#FFB800" stroke-miterlimit="10" stroke-linecap="round" stroke-linejoin="round"/>
<path d="M7.1875 28.125V29.375" stroke="#FFB800" stroke-miterlimit="10" stroke-linecap="round" stroke-linejoin="round"/>
<path d="M16.5625 23.125C18.9787 23.125 20.9375 22.2855 20.9375 21.25C20.9375 20.2145 18.9787 19.375 16.5625 19.375C14.1463 19.375 12.1875 20.2145 12.1875 21.25C12.1875 22.2855 14.1463 23.125 16.5625 23.125Z" stroke="#FFB800" stroke-miterlimit="10" stroke-linecap="round" stroke-linejoin="round"/>
<path d="M20.9375 21.25V24.375C20.9375 25.4125 18.9812 26.25 16.5625 26.25C14.1438 26.25 12.1875 25.4125 12.1875 24.375V21.25" stroke="#FFB800" stroke-miterlimit="10" stroke-linecap="round" stroke-linejoin="round"/>
<path d="M12.1875 24.375V27.5C12.1875 28.5375 14.1438 29.375 16.5625 29.375C18.9812 29.375 20.9375 28.5375 20.9375 27.5V24.375" stroke="#FFB800" stroke-miterlimit="10" stroke-linecap="round" stroke-linejoin="round"/>
<path d="M26.5625 18.125V21.25C26.5625 22.1937 24.9313 22.975 22.8125 23.1063" stroke="#FFB800" stroke-miterlimit="10" stroke-linecap="round" stroke-linejoin="round"/>
<path d="M22.1875 16.875C24.6037 16.875 26.5625 16.0355 26.5625 15C26.5625 13.9645 24.6037 13.125 22.1875 13.125C19.7713 13.125 17.8125 13.9645 17.8125 15C17.8125 16.0355 19.7713 16.875 22.1875 16.875Z" stroke="#FFB800" stroke-miterlimit="10" stroke-linecap="round" stroke-linejoin="round"/>
<path d="M17.8125 17.5V15" stroke="#FFB800" stroke-miterlimit="10" stroke-linecap="round" stroke-linejoin="round"/>
<path d="M26.5625 15V18.125C26.5625 19.1062 24.8125 19.9062 22.575 19.9937" stroke="#FFB800" stroke-miterlimit="10" stroke-linecap="round" stroke-linejoin="round"/>
<path d="M22.8125 26.2313C24.9313 26.1 26.5625 25.3187 26.5625 24.375V21.25" stroke="#FFB800" stroke-miterlimit="10" stroke-linecap="round" stroke-linejoin="round"/>
</svg>
