<svg width="30" height="30" viewBox="0 0 30 30" fill="none" xmlns="http://www.w3.org/2000/svg">
<path d="M24.9358 19.4002H4.26705C2.99202 19.4002 1.95605 18.3642 1.95605 17.0892V13.6652C1.95605 13.4447 2.07559 13.2428 2.2695 13.1392C3.15937 12.6611 3.71188 11.7393 3.71188 10.7299C3.71188 9.7232 3.15937 8.7988 2.2695 8.32332C2.07559 8.21972 1.95605 8.01784 1.95605 7.79737V4.37337C1.95605 3.09834 2.99202 2.06238 4.26705 2.06238H24.9332C26.2082 2.06238 27.2442 3.09834 27.2442 4.37337V7.79737C27.2442 8.01784 27.122 8.21972 26.9307 8.32332C26.0409 8.80145 25.4884 9.7232 25.4884 10.7299C25.4884 11.7367 26.0409 12.6611 26.9307 13.1366C27.1247 13.2402 27.2442 13.442 27.2442 13.6625V17.0865C27.2468 18.3642 26.2082 19.4002 24.9358 19.4002ZM3.1514 14.0052V17.0918C3.1514 17.7081 3.65078 18.2075 4.26705 18.2075H24.9332C25.5495 18.2075 26.0488 17.7081 26.0488 17.0918V14.0052C24.9571 13.28 24.293 12.0581 24.293 10.7326C24.293 9.40709 24.9571 8.18519 26.0488 7.46001V4.37337C26.0488 3.75711 25.5495 3.25772 24.9332 3.25772H4.26705C3.65078 3.25772 3.1514 3.75711 3.1514 4.37337V7.46001C4.24314 8.18519 4.90722 9.40709 4.90722 10.7326C4.90722 12.0581 4.24314 13.28 3.1514 14.0052Z" fill="#FFB800"/>
<rect x="11.0552" y="2.62671" width="7.09009" height="16.2108" stroke="#FFB800"/>
<g clip-path="url(#clip0_46_4624)">
<path d="M6.56049 6.2973C6.2516 6.2973 6 6.03524 6 5.71351V5.58378C6 5.26205 6.2516 5 6.56049 5C6.86938 5 7.12097 5.26205 7.12097 5.58378V5.71351C7.12097 6.03524 6.86938 6.2973 6.56049 6.2973Z" fill="#FFB800"/>
<path d="M6.56049 14.9477C6.2516 14.9477 6 14.6857 6 14.3639V14.1226C6 13.8009 6.2516 13.5389 6.56049 13.5389C6.86938 13.5389 7.12097 13.8009 7.12097 14.1226V14.3639C7.12097 14.6857 6.86938 14.9477 6.56049 14.9477ZM6.56049 12.7864C6.2516 12.7864 6 12.5244 6 12.2026V11.9613C6 11.6396 6.2516 11.3776 6.56049 11.3776C6.86938 11.3776 7.12097 11.6396 7.12097 11.9613V12.2026C7.12097 12.5244 6.86938 12.7864 6.56049 12.7864ZM6.56049 10.6225C6.2516 10.6225 6 10.3605 6 10.0387V9.80004C6 9.47831 6.2516 9.21626 6.56049 9.21626C6.86938 9.21626 7.12097 9.47831 7.12097 9.80004V10.0413C7.12097 10.3605 6.86938 10.6225 6.56049 10.6225ZM6.56049 8.46123C6.2516 8.46123 6 8.19918 6 7.87745V7.63615C6 7.31442 6.2516 7.05237 6.56049 7.05237C6.86938 7.05237 7.12097 7.31442 7.12097 7.63615V7.87745C7.12097 8.19918 6.86938 8.46123 6.56049 8.46123Z" fill="#FFB800"/>
<path d="M6.56049 17.0001C6.2516 17.0001 6 16.7406 6 16.4163V16.2865C6 15.9648 6.2516 15.7028 6.56049 15.7028C6.86938 15.7028 7.12097 15.9648 7.12097 16.2865V16.4163C7.12097 16.7406 6.86938 17.0001 6.56049 17.0001Z" fill="#FFB800"/>
<path d="M21.4394 6.2973C21.1305 6.2973 20.8789 6.03524 20.8789 5.71351V5.58378C20.8789 5.26205 21.1305 5 21.4394 5C21.7483 5 21.9999 5.26205 21.9999 5.58378V5.71351C21.9999 6.03524 21.7508 6.2973 21.4394 6.2973Z" fill="#FFB800"/>
<path d="M21.4394 14.9477C21.1305 14.9477 20.8789 14.6857 20.8789 14.3639V14.1226C20.8789 13.8009 21.1305 13.5389 21.4394 13.5389C21.7483 13.5389 21.9999 13.8009 21.9999 14.1226V14.3639C21.9999 14.6857 21.7508 14.9477 21.4394 14.9477ZM21.4394 12.7864C21.1305 12.7864 20.8789 12.5244 20.8789 12.2026V11.9613C20.8789 11.6396 21.1305 11.3776 21.4394 11.3776C21.7483 11.3776 21.9999 11.6396 21.9999 11.9613V12.2026C21.9999 12.5244 21.7508 12.7864 21.4394 12.7864ZM21.4394 10.6225C21.1305 10.6225 20.8789 10.3605 20.8789 10.0387V9.80004C20.8789 9.47831 21.1305 9.21626 21.4394 9.21626C21.7483 9.21626 21.9999 9.47831 21.9999 9.80004V10.0413C21.9999 10.3605 21.7508 10.6225 21.4394 10.6225ZM21.4394 8.46123C21.1305 8.46123 20.8789 8.19918 20.8789 7.87745V7.63615C20.8789 7.31442 21.1305 7.05237 21.4394 7.05237C21.7483 7.05237 21.9999 7.31442 21.9999 7.63615V7.87745C21.9999 8.19918 21.7508 8.46123 21.4394 8.46123Z" fill="#FFB800"/>
<path d="M21.4394 17.0001C21.1305 17.0001 20.8789 16.738 20.8789 16.4163V16.2865C20.8789 15.9648 21.1305 15.7028 21.4394 15.7028C21.7483 15.7028 21.9999 15.9648 21.9999 16.2865V16.4163C21.9999 16.7406 21.7508 17.0001 21.4394 17.0001Z" fill="#FFB800"/>
</g>
<path d="M10.0713 25.4557C15.3522 27.1288 21.1063 22.3815 21.1005 17.5415V12.9099H18.7638L24.0214 5.96252L29.2789 12.9099H26.9422V17.5415V17.5531C26.9481 22.9431 22.7187 26.7988 16.2519 26.8046C13.2141 26.8046 10.4861 25.9536 8.45312 24.4888" fill="white"/>
<path d="M10.0713 25.4557C15.3522 27.1288 21.1063 22.3815 21.1005 17.5415V12.9099H18.7638L24.0214 5.96252L29.2789 12.9099H26.9422V17.5415V17.5531C26.9481 22.9431 22.7187 26.7988 16.2519 26.8046C13.2141 26.8046 10.4861 25.9536 8.45312 24.4888" stroke="#FFB800" stroke-miterlimit="10" stroke-linecap="round" stroke-linejoin="round"/>
<defs>
<clipPath id="clip0_46_4624">
<rect width="16" height="12" fill="white" transform="translate(6 5)"/>
</clipPath>
</defs>
</svg>
