<svg width="30" height="28" viewBox="0 0 30 28" fill="none" xmlns="http://www.w3.org/2000/svg">
<path d="M7.35164 17.234C6.81819 17.3007 6.25139 17.3341 5.6646 17.3341C2.71728 17.3341 0.330078 16.4405 0.330078 15.3336" stroke="#FFB800" stroke-miterlimit="10" stroke-linecap="round" stroke-linejoin="round"/>
<path d="M13.0862 11.3194C13.2796 11.3261 13.4729 11.3327 13.6663 11.3327C16.6136 11.3327 19.0008 10.4392 19.0008 9.33228" stroke="#FFB800" stroke-miterlimit="10" stroke-linecap="round" stroke-linejoin="round"/>
<path d="M4.12425 20.5814C1.93043 20.3347 0.330078 19.5745 0.330078 18.6677V15.3336V11.9995" stroke="#FFB800" stroke-miterlimit="10" stroke-linecap="round" stroke-linejoin="round"/>
<path d="M13.6663 4.66459C16.6125 4.66459 19.0008 3.76896 19.0008 2.66414C19.0008 1.55933 16.6125 0.663696 13.6663 0.663696C10.7201 0.663696 8.33179 1.55933 8.33179 2.66414C8.33179 3.76896 10.7201 4.66459 13.6663 4.66459Z" stroke="#FFB800" stroke-miterlimit="10" stroke-linecap="round" stroke-linejoin="round"/>
<path d="M19.0008 5.99817C19.0008 7.10508 16.6136 7.99861 13.6663 7.99861C10.719 7.99861 8.33179 7.10508 8.33179 5.99817" stroke="#FFB800" stroke-miterlimit="10" stroke-linecap="round" stroke-linejoin="round"/>
<path d="M5.6646 14C8.61077 14 10.9991 13.1044 10.9991 11.9996C10.9991 10.8948 8.61077 9.99915 5.6646 9.99915C2.71842 9.99915 0.330078 10.8948 0.330078 11.9996C0.330078 13.1044 2.71842 14 5.6646 14Z" stroke="#FFB800" stroke-miterlimit="10" stroke-linecap="round" stroke-linejoin="round"/>
<path d="M8.33179 2.66418V8.11206" stroke="#FFB800" stroke-miterlimit="10" stroke-linecap="round" stroke-linejoin="round"/>
<path d="M10.999 11.9995V15.1269" stroke="#FFB800" stroke-miterlimit="10" stroke-linecap="round" stroke-linejoin="round"/>
<path d="M19.001 12.373V9.33233V2.66418" stroke="#FFB800" stroke-miterlimit="10" stroke-linecap="round" stroke-linejoin="round"/>
<path d="M6.3313 20.0013V24.4223L13.6663 27.3363V22.8886L6.3313 20.0013Z" stroke="#FFB800" stroke-miterlimit="10" stroke-linecap="round" stroke-linejoin="round"/>
<path d="M19.6676 24.8357L13.6663 27.3362" stroke="#FFB800" stroke-miterlimit="10" stroke-linecap="round" stroke-linejoin="round"/>
<path d="M24.5754 18.3343L29.6699 16.2139V20.6682L25.0022 22.6153" stroke="#FFB800" stroke-miterlimit="10" stroke-linecap="round" stroke-linejoin="round"/>
<path d="M13.6663 22.882L19.1541 20.5881" stroke="#FFB800" stroke-miterlimit="10" stroke-linecap="round" stroke-linejoin="round"/>
<path d="M17.2073 15.4737L22.3084 13.3466L29.67 16.2139" stroke="#FFB800" stroke-miterlimit="10" stroke-linecap="round" stroke-linejoin="round"/>
<path d="M6.3313 20.0013L11.8659 17.6941" stroke="#FFB800" stroke-miterlimit="10" stroke-linecap="round" stroke-linejoin="round"/>
<path d="M16.5136 15.2069L25.0022 18.501V23.1153L19.6677 25.5025V20.7948L11.1858 17.4274L16.5136 15.2069Z" stroke="#FFB800" stroke-miterlimit="10" stroke-linecap="round" stroke-linejoin="round"/>
</svg>
