<svg width="30" height="30" viewBox="0 0 30 30" fill="none" xmlns="http://www.w3.org/2000/svg">
<g clip-path="url(#clip0_46_4544)">
<path d="M10.423 20.3226L6.79395 27.5807H12.8423L16.4714 20.3226H10.423Z" fill="white"/>
<path d="M7.95512 17.4193H4.88738C2.69061 17.4193 1.20996 18.3483 1.20996 21.0967V23.7096C1.20996 25.3112 2.51157 26.6129 4.11319 26.6129H7.27286L10.4035 20.3225H11.6277V18.6435C10.8148 18.2129 9.2277 17.4725 7.95512 17.4193Z" fill="white"/>
<path d="M14.536 25.1613H12.2715L13.4812 22.7419H15.5134C15.9683 22.7419 16.2634 23.221 16.0602 23.6274L15.6344 24.4839C15.4263 24.9 15.0005 25.1613 14.536 25.1613Z" fill="white"/>
<path d="M6.79391 27.5807L7.27778 26.6129H3.62939V29.5161H10.4036V27.5807H6.79391Z" fill="white"/>
<path d="M6.53264 15.4839C7.91651 15.4839 8.95199 14.2791 8.95199 12.7888V11.8888C8.95199 10.3984 7.91651 9.1936 6.53264 9.1936C5.14877 9.1936 4.11328 10.3984 4.11328 11.8888V12.7888C4.11328 14.2791 5.14877 15.4839 6.53264 15.4839Z" fill="white" stroke="#FFB800" stroke-miterlimit="10" stroke-linecap="round" stroke-linejoin="round"/>
<path d="M11.6325 18.6435C10.8148 18.208 9.23254 17.4677 7.95512 17.4193C5.90351 17.4193 5.34222 17.4193 4.89222 17.4193C2.69061 17.4193 1.20996 18.3435 1.20996 21.0967V23.7096C1.20996 25.3112 2.51157 26.6129 4.11319 26.6129H7.27286" stroke="#FFB800" stroke-miterlimit="10" stroke-linecap="round" stroke-linejoin="round"/>
<path d="M4.11328 20.8065V23.0952C4.11328 23.4339 4.28264 23.6081 5.11489 23.821C5.9036 24.0243 8.26973 24.6243 8.26973 24.6243" stroke="#FFB800" stroke-miterlimit="10" stroke-linecap="round" stroke-linejoin="round"/>
<path d="M3.62939 26.6129V29.5161" stroke="#FFB800" stroke-miterlimit="10" stroke-linecap="round" stroke-linejoin="round"/>
<path d="M10.4033 27.5807V29.5162" stroke="#FFB800" stroke-miterlimit="10" stroke-linecap="round" stroke-linejoin="round"/>
<path d="M14.536 25.1613H12.2715L13.4812 22.7419H15.5134C15.9683 22.7419 16.2634 23.221 16.0602 23.6274L15.6344 24.4839C15.4263 24.9 15.0005 25.1613 14.536 25.1613Z" stroke="#FFB800" stroke-miterlimit="10" stroke-linecap="round" stroke-linejoin="round"/>
<path d="M7.62598 21.6532L8.95178 23.2596" stroke="#FFB800" stroke-miterlimit="10" stroke-linecap="round" stroke-linejoin="round"/>
<path d="M15.2617 22.742L16.4714 20.3226H10.423L6.79395 27.5807H12.8423L14.052 25.1613" stroke="#FFB800" stroke-miterlimit="10" stroke-linecap="round" stroke-linejoin="round"/>
<path d="M13.6937 0.483887H26.9518C27.9679 0.483887 28.7905 1.30647 28.7905 2.3226V11.579C28.7905 12.9339 27.6921 14.0323 26.3372 14.0323H18.2421L15.8711 17.3855C15.5276 17.8742 14.7582 17.6274 14.7582 17.0323V14.0323H13.6937C12.6776 14.0323 11.855 13.2097 11.855 12.1936V2.3226C11.855 1.30647 12.6776 0.483887 13.6937 0.483887Z" fill="white" stroke="#FFB800" stroke-miterlimit="10" stroke-linecap="round" stroke-linejoin="round"/>
<path d="M23.9519 7.74194V11.129H16.6938V3.87097H22.0164" stroke="#FFB800" stroke-miterlimit="10" stroke-linecap="round" stroke-linejoin="round"/>
<path d="M18.373 7.4516L20.2118 9.29032L24.5037 4.25806" stroke="#FFB800" stroke-miterlimit="10" stroke-linecap="round" stroke-linejoin="round"/>
</g>
<defs>
<clipPath id="clip0_46_4544">
<rect width="30" height="30" fill="white"/>
</clipPath>
</defs>
</svg>
